<svg width="153" height="20" viewBox="0 0 153 20" fill="none" xmlns="http://www.w3.org/2000/svg">
<path d="M125.688 1.52682C125.688 3.05339 125.688 3.05339 128.69 3.05339C131.183 3.05339 131.998 3.25693 133.27 4.37641C134.898 5.75033 136.17 5.69944 136.679 4.32553C137.391 2.49364 132.608 0.000244141 128.486 0.000244141C125.739 0.000244141 125.688 0.000244141 125.688 1.52682Z" fill="#FFC400"/>
<path d="M102.026 5.80136C98.82 7.02262 97.1917 9.15982 97.1917 12.2638C97.1917 17.3524 100.296 19.8458 106.606 19.8458C112.712 19.8458 116.019 17.3015 116.019 12.62C116.019 9.9231 114.595 7.48059 112.457 6.3611C110.168 5.19073 104.519 4.88542 102.026 5.80136Z" fill="#FFC400"/>
<path d="M122.482 5.80116C117.444 7.68393 115.714 12.6707 118.614 16.8434C119.938 18.7261 123.042 19.8456 127.011 19.8456C132.761 19.8456 135.865 17.6575 136.221 13.3831C136.475 10.2282 135.254 7.7857 132.659 6.46267C130.166 5.19053 125.026 4.83433 122.482 5.80116Z" fill="#FFC400"/>
<path d="M21.0158 6.56419C15.6728 9.05759 15.2657 16.2325 20.3543 18.8276C22.5932 19.998 26.7659 20.3033 30.6841 19.6927C32.9739 19.2856 33.0757 19.2347 33.0757 17.5555C33.0757 15.8254 33.0248 15.8254 31.7018 16.3342C29.2593 17.3011 23.8145 17.1484 22.237 16.1307C21.4738 15.6727 20.8631 15.0112 20.8631 14.7568C20.8631 14.4515 23.5092 14.2479 27.4783 14.2479H34.0934V12.5687C34.0934 10.635 32.6177 7.98899 30.7858 6.81862C28.7504 5.49559 23.611 5.34293 21.0158 6.56419ZM28.9031 9.46467C29.5137 9.87176 30.0226 10.5842 30.0226 10.9912C30.0226 11.551 29.1066 11.7036 25.4428 11.7036C22.9494 11.7036 20.8631 11.5001 20.8631 11.2966C20.8631 10.7368 22.3897 9.3629 23.4074 9.0067C24.934 8.44696 27.7836 8.6505 28.9031 9.46467Z" fill="#FFC400"/>
<path d="M64.6248 6.05563C62.1314 6.56448 61.5717 6.97157 61.5717 8.49814C61.5717 9.7194 61.6734 9.77028 63.5053 9.46497C68.7974 8.49814 70.9346 8.49814 72.2068 9.51585L73.4789 10.5336L70.1714 10.8898C63.4036 11.6531 60.554 13.0779 60.554 15.8257C60.554 18.37 62.0805 19.4895 65.7952 19.7439C67.678 19.8457 69.9169 19.693 71.0364 19.3368C72.4612 18.8279 73.021 18.8279 73.1736 19.2859C73.2754 19.5912 74.1404 19.8457 75.1073 19.8457H76.8374V14.35C76.8374 9.15965 76.7356 8.75257 75.6161 7.68397C73.6316 5.85208 69.1536 5.19057 64.6248 6.05563ZM73.2754 14.5535C73.2754 15.673 70.1714 16.7925 67.1691 16.7925C64.981 16.7925 64.6248 16.6399 64.6248 15.7748C64.6248 14.5535 66.762 13.8411 70.6293 13.7903C72.7156 13.7394 73.2754 13.892 73.2754 14.5535Z" fill="#FFC400"/>
<path d="M0 12.976V19.8456H5.85185C12.8741 19.8456 15.0113 19.1841 15.5201 16.8942C15.8763 15.0623 15.1639 13.434 13.79 12.976C12.7723 12.6707 12.7723 12.6707 13.79 11.653C15.0622 10.3808 15.0113 8.3963 13.7391 7.12416C12.8232 6.20822 12.0599 6.10645 6.36071 6.10645H0V12.976ZM9.87183 8.95604C10.3298 9.1087 10.686 9.71933 10.686 10.2282C10.686 11.0932 10.2789 11.195 7.124 11.195C4.01997 11.195 3.562 11.0932 3.562 10.2791C3.562 9.77022 3.71466 9.15959 3.9182 9.00693C4.32528 8.54896 8.80323 8.54896 9.87183 8.95604ZM11.4493 15.5203C11.4493 16.4362 11.0422 16.538 7.53108 16.6907C3.562 16.8433 3.562 16.8433 3.562 15.5203C3.562 14.1973 3.562 14.1973 7.53108 14.3499C11.0422 14.5026 11.4493 14.6044 11.4493 15.5203Z" fill="#FFC400"/>
<path d="M34.6022 7.22569C34.8567 7.8872 36.0779 10.8895 37.2992 13.9935L39.589 19.5909H41.7771H43.9143L45.4918 15.4183C46.3568 13.0775 47.171 11.1948 47.3237 11.1948C47.4763 11.1948 48.2905 13.0775 49.1555 15.3674L50.733 19.5909H52.9211H55.1601L57.8061 12.9758L60.4522 6.36063L58.6712 6.20797C57.6535 6.1062 56.6866 6.20797 56.4831 6.4624C56.2796 6.66594 55.4654 8.54872 54.7021 10.5841C53.8879 12.6196 53.1246 14.4006 52.9211 14.5023C52.7684 14.6041 51.9034 12.8231 51.0892 10.5333L49.6135 6.36063H47.3745H45.0847L43.9143 9.41377C41.4718 15.6727 41.828 15.5709 39.8435 10.5333L38.0625 6.1062H36.0779C34.246 6.1062 34.1443 6.15709 34.6022 7.22569Z" fill="#FFC400"/>
<path d="M79.8904 12.976V19.8456H81.6714H83.4524V17.0469C83.4524 14.3499 83.5033 14.2482 84.8772 14.2482C88.541 14.2482 92.6118 16.6907 92.6118 18.8788C92.6118 19.6929 93.0189 19.8456 94.6981 19.8456C96.7335 19.8456 96.7844 19.7947 96.4791 18.4208C95.9703 16.3854 94.5455 14.6552 92.3574 13.434C90.6273 12.4163 90.5764 12.2636 91.4923 12.0092C92.9171 11.5512 95.6649 8.34542 95.6649 7.12416C95.6649 6.30999 95.3087 6.10645 93.8839 6.10645C92.4592 6.10645 92.0012 6.36087 91.3397 7.63302C90.3219 9.66845 88.7445 10.6353 85.844 10.9915L83.4524 11.3477V8.70162V6.10645H81.6714H79.8904V12.976Z" fill="#FFC400"/>
<path d="M139.58 7.3277C138.206 8.54896 138.155 8.65073 138.155 14.0955V19.5912L140.088 19.7438L141.971 19.8965V17.0978V14.2482H147.06H152.148V12.7216V11.195H147.009C142.429 11.195 141.92 11.0932 142.073 10.2791C142.226 9.51579 142.938 9.41402 147.467 9.26136L152.657 9.1087V7.63302V6.10645H146.856C141.411 6.10645 140.903 6.20822 139.58 7.3277Z" fill="#FFC400"/>
</svg>
