<svg xmlns="http://www.w3.org/2000/svg" width="13" height="16" viewBox="0 0 13 16" fill="#292D35">
  <path d="M1.53955 14H12.0396V15.5H1.53955V14ZM6.78955 12.5C5.19825 12.5 3.67213 11.8679 2.54691 10.7426C1.42169 9.61742 0.789551 8.0913 0.789551 6.5C0.789551 4.9087 1.42169 3.38258 2.54691 2.25736C3.67213 1.13214 5.19825 0.5 6.78955 0.5C8.38085 0.5 9.90697 1.13214 11.0322 2.25736C12.1574 3.38258 12.7896 4.9087 12.7896 6.5C12.7896 8.0913 12.1574 9.61742 11.0322 10.7426C9.90697 11.8679 8.38085 12.5 6.78955 12.5ZM6.78955 11C7.98302 11 9.12762 10.5259 9.97153 9.68198C10.8154 8.83807 11.2896 7.69347 11.2896 6.5C11.2896 5.30653 10.8154 4.16193 9.97153 3.31802C9.12762 2.47411 7.98302 2 6.78955 2C5.59608 2 4.45148 2.47411 3.60757 3.31802C2.76366 4.16193 2.28955 5.30653 2.28955 6.5C2.28955 7.69347 2.76366 8.83807 3.60757 9.68198C4.45148 10.5259 5.59608 11 6.78955 11Z" fill="#292D35"/>
</svg>