<svg xmlns="http://www.w3.org/2000/svg" width="14" height="15" viewBox="0 0 14 15" fill="#292D35">
  <path d="M12.7896 14.75H0.789551C0.590639 14.75 0.399873 14.671 0.259221 14.5303C0.118569 14.3897 0.0395508 14.1989 0.0395508 14V1.25C0.0395508 1.05109 0.118569 0.860322 0.259221 0.71967C0.399873 0.579019 0.590639 0.5 0.789551 0.5H12.7896C12.9885 0.5 13.1792 0.579019 13.3199 0.71967C13.4605 0.860322 13.5396 1.05109 13.5396 1.25V14C13.5396 14.1989 13.4605 14.3897 13.3199 14.5303C13.1792 14.671 12.9885 14.75 12.7896 14.75ZM12.0396 13.25V2H1.53955V13.25H12.0396ZM4.53955 3.5V5C4.53955 5.59674 4.7766 6.16903 5.19856 6.59099C5.62052 7.01295 6.19281 7.25 6.78955 7.25C7.38629 7.25 7.95858 7.01295 8.38054 6.59099C8.8025 6.16903 9.03955 5.59674 9.03955 5V3.5H10.5396V5C10.5396 5.99456 10.1445 6.94839 9.4412 7.65165C8.73794 8.35491 7.78411 8.75 6.78955 8.75C5.79499 8.75 4.84116 8.35491 4.1379 7.65165C3.43464 6.94839 3.03955 5.99456 3.03955 5V3.5H4.53955Z" fill="#292D35"/>
</svg>