<svg xmlns="http://www.w3.org/2000/svg" width="16" height="15" viewBox="0 0 16 15" fill="#292D35">
  <path d="M11.1646 0.250001C13.4431 0.250001 15.2896 2.125 15.2896 4.75C15.2896 10 9.66455 13 7.78955 14.125C5.91455 13 0.289551 10 0.289551 4.75C0.289551 2.125 2.16455 0.250001 4.41455 0.250001C5.80955 0.250001 7.03955 1 7.78955 1.75C8.53955 1 9.76955 0.250001 11.1646 0.250001ZM8.49005 11.953C9.1508 11.536 9.74705 11.1212 10.3051 10.6772C12.5408 8.89975 13.7896 6.95725 13.7896 4.75C13.7896 2.98 12.6368 1.75 11.1646 1.75C10.3576 1.75 9.48455 2.1775 8.85005 2.8105L7.78955 3.871L6.72905 2.8105C6.09455 2.1775 5.22155 1.75 4.41455 1.75C2.95955 1.75 1.78955 2.992 1.78955 4.75C1.78955 6.958 3.03905 8.89975 5.2733 10.6772C5.83205 11.1212 6.4283 11.536 7.08905 11.9523C7.3133 12.094 7.5353 12.2297 7.78955 12.3812C8.0438 12.2297 8.2658 12.094 8.49005 11.953Z" fill="#292D35"/>
</svg>